<?xml version="1.0" encoding="utf-8"?>
<!-- Generator: Adobe Illustrator 22.1.0, SVG Export Plug-In . SVG Version: 6.00 Build 0)  -->
<svg version="1.1" id="logos" xmlns="http://www.w3.org/2000/svg" xmlns:xlink="http://www.w3.org/1999/xlink" x="0px" y="0px"
	 viewBox="0 0 420.9 297.6" style="enable-background:new 0 0 420.9 297.6;" xml:space="preserve">
<style type="text/css">
	.st0{fill:#FFFFFF;}
	.st1{fill:none;stroke:#FFFFFF;stroke-width:1.5;stroke-linecap:square;stroke-linejoin:bevel;}
	.st2{fill:#E85D47;}
</style>
<title>2024-03_oesm_hst24_logo</title>
<path class="st0" d="M388.4,171.6l8.7-15.5l16.3,1.6l-1,1.8l-13.5-1.4l-2.8,5l10.5,1.1l-1,1.8l-10.5-1l-2.9,5.2l14,1.4l-1,1.8
	L388.4,171.6z"/>
<path class="st0" d="M305,5.5L296.4,21l-3.5-0.4l-3.9-11.3l-0.8-3.2l0,0l-1.2,2.4l-6.1,10.9l-2.7-0.3l8.6-15.5l3.5,0.3l3.9,11.3
	l0.8,3.2l0,0l1.2-2.4l6.1-10.9L305,5.5z"/>
<path class="st0" d="M146.4,271.5c1.7,0.1,3.3,0.6,4.8,1.4c1.1,0.6,1.9,1.6,2.3,2.8l-3.1,1c-0.2-1-0.9-1.9-1.8-2.4
	c-1.1-0.6-2.4-0.9-3.6-1c-1.1-0.1-2.2-0.1-3.3,0c-0.8,0.1-1.6,0.4-2.3,0.8c-0.5,0.3-1,0.7-1.3,1.2c-0.3,0.5-0.3,1.1,0,1.5
	c0.7,0.7,1.6,1.1,2.6,1.3l4.6,1.2c2,0.5,3.3,1.2,3.8,2c0.5,0.8,0.5,1.8-0.1,2.6c-0.6,1-1.4,1.7-2.4,2.2c-1.3,0.7-2.6,1.1-4,1.3
	c-1.7,0.2-3.3,0.3-5,0.1c-1.4-0.1-2.8-0.4-4.2-0.9c-1-0.3-1.9-0.9-2.6-1.6c-0.6-0.5-1-1.2-1.3-2l3.2-1.1c0.1,0.6,0.4,1.3,0.9,1.8
	c0.6,0.6,1.2,1,2,1.3c1,0.4,2.1,0.6,3.2,0.7c1.1,0.1,2.2,0.1,3.3,0c0.9-0.1,1.7-0.3,2.5-0.7c0.6-0.3,1.1-0.7,1.5-1.3
	c0.3-0.4,0.3-1,0-1.4c-0.6-0.6-1.4-1.1-2.3-1.2l-5-1.4c-1.1-0.2-2.1-0.7-3-1.2c-0.6-0.3-1.1-0.9-1.2-1.6c-0.1-0.6,0-1.2,0.4-1.8
	c0.6-0.9,1.4-1.7,2.3-2.2c1.2-0.7,2.6-1.1,3.9-1.4C143.1,271.4,144.8,271.3,146.4,271.5z"/>
<path class="st0" d="M16,134.1l1.8-16.2l2.9,0.3l-2,14.4l13.2-13.2l3.2,0.3l-2.3,14.4l13.5-13.3l2.8,0.3l-15.5,14.8l-3.5-0.3
	l1.5-10.5l0.8-3.6l0,0l-3.1,3.4l-9.7,9.6L16,134.1z"/>
<polygon class="st1" points="283.9,25.4 243.9,137.9 378.3,162.1 232.4,158.4 149,266.5 189,154.1 54.6,129.9 200.5,133.5 "/>
<path class="st2" d="M82.9,107.8h27.5v13.4H65V63.3h17.9V107.8z"/>
<path class="st2" d="M144.7,62.4c5.4-0.1,10.7,1.1,15.5,3.6c4.3,2.3,7.7,5.9,9.9,10.2c2.4,5,3.6,10.5,3.5,16.1c0.2,5.5-1,11-3.5,16
	c-2.2,4.3-5.7,7.9-9.9,10.2c-4.8,2.5-10.1,3.7-15.5,3.6c-5.4,0.1-10.7-1.1-15.5-3.6c-4.3-2.3-7.8-5.9-10-10.2
	c-2.5-5-3.7-10.5-3.5-16c-0.2-5.6,1-11.1,3.5-16.1c2.2-4.3,5.7-7.9,10-10.2C134,63.5,139.3,62.3,144.7,62.4z M144.7,76.1
	c-2.1-0.1-4.2,0.5-5.9,1.8c-1.7,1.4-2.9,3.2-3.5,5.3c-0.9,2.9-1.3,6-1.2,9c-0.1,3,0.3,6.1,1.2,9c0.6,2.1,1.8,4,3.5,5.3
	c3.6,2.4,8.2,2.4,11.8,0c1.7-1.4,2.9-3.2,3.5-5.3c0.8-2.9,1.2-6,1.1-9c0.1-3-0.3-6.1-1.1-9c-0.6-2.1-1.8-3.9-3.5-5.3
	C148.9,76.7,146.8,76,144.7,76.1z"/>
<path class="st2" d="M206.9,62.4c5-0.1,9.9,0.7,14.6,2.2c4.2,1.4,8,3.8,11.2,6.8L225,83c-2.5-2.1-5.3-3.9-8.4-5.2
	c-3.1-1.3-6.4-1.9-9.8-1.9c-1.5,0-3,0.1-4.4,0.5c-0.9,0.2-1.8,0.7-2.5,1.4c-0.5,0.6-0.7,1.3-0.7,2.1c0.1,1,0.7,1.9,1.7,2.3
	c1.5,0.7,3.1,1.2,4.8,1.6l8.8,2c5.8,1.3,10.2,3.3,13.1,5.9c2.9,2.6,4.3,6.2,4.3,10.7c0.2,3.9-1,7.8-3.3,11c-2.3,3-5.4,5.3-9,6.6
	c-4.1,1.5-8.5,2.3-12.9,2.2c-3.7,0-7.4-0.4-11.1-1.1c-3.4-0.7-6.7-1.8-9.9-3.3c-2.8-1.3-5.4-3.1-7.7-5.1l7.7-11.8
	c1.7,1.6,3.7,3,5.8,4.1c2.3,1.2,4.8,2.2,7.3,2.8c2.4,0.7,4.9,1,7.4,1.1c1.4,0,2.8-0.1,4.2-0.5c0.9-0.2,1.7-0.7,2.3-1.4
	c0.5-0.6,0.7-1.3,0.7-2.1c0-0.9-0.4-1.8-1.1-2.4c-1.3-0.8-2.8-1.4-4.3-1.6l-9.6-2.2c-3-0.7-6-1.6-8.8-2.9c-2.6-1.1-4.8-2.9-6.4-5.1
	c-1.7-2.5-2.6-5.6-2.4-8.6c-0.1-3.6,1-7.1,3.1-10.1c2.3-3.1,5.4-5.5,9-6.8C197.3,63.2,202.1,62.3,206.9,62.4z"/>
<path class="st2" d="M293.3,63.3v13.4h-18.4v44.5H257V76.7h-18.6V63.3H293.3z"/>
<path class="st2" d="M331.1,122.1c-3.7,0.1-7.4-0.5-10.9-1.8c-3-1-5.5-2.9-7.4-5.3c-1.8-2.6-2.8-5.8-2.7-9c0-1.6,0.3-3.2,0.7-4.8
	c0.5-1.8,1.4-3.5,2.6-5c1.5-1.8,3.3-3.2,5.4-4.2c2.8-1.3,5.8-2.1,8.9-2.3l2.4-0.4c2.1-1.3,4-2.7,5.9-4.3c1.1-1,2.1-2.1,2.8-3.5
	c0.5-1.1,0.7-2.4,0.7-3.6c0.1-1.2-0.4-2.3-1.2-3.2c-0.9-0.8-2-1.2-3.2-1.2c-1.3-0.1-2.5,0.4-3.4,1.3c-0.9,1-1.4,2.3-1.3,3.7
	c0,0.9,0.2,1.7,0.5,2.5c0.5,1.1,1.2,2.1,1.9,3.1c0.9,1.2,2.3,2.8,4,4.7s4.1,4.3,6.9,7.3c2.8,2.8,5.1,5.2,7,7.1
	c1.6,1.6,3.3,3.1,5.1,4.5c1.3,1,2.8,1.6,4.4,2c1.7,0.3,3.3,0.3,5,0l-1.1,12.4c-2.3,0-4.7-0.1-7-0.5c-2.1-0.4-4.1-1.1-6-2.1
	c-2.4-1.3-4.6-2.9-6.6-4.7c-2.4-2.1-5.4-4.8-8.9-8.3c-4.3-4.3-7.8-7.8-10.5-10.6c-2.2-2.2-4.3-4.6-6.1-7.2c-1.2-1.7-2.2-3.5-2.8-5.4
	c-0.5-1.7-0.8-3.5-0.7-5.3c0-2.6,0.7-5.1,2-7.3c1.5-2.5,3.7-4.5,6.3-5.8c3.4-1.6,7.1-2.4,10.9-2.3c4.5,0,8.1,0.7,10.8,2.1
	c4.7,2.2,7.7,7,7.7,12.2c0,2.7-0.7,5.4-2.1,7.8c-1.6,2.5-3.8,4.6-6.4,6c-3.3,1.8-6.9,3-10.7,3.6l-2.6,1.6c-1.4,0.9-2.7,1.9-3.9,3
	c-0.8,0.8-1.5,1.7-1.9,2.7c-0.4,1-0.5,2.1-0.5,3.2c0,1.2,0.3,2.3,1,3.2c0.8,1,1.8,1.7,3,2.1c1.5,0.5,3,0.8,4.6,0.8
	c2.3,0,4.6-0.3,6.8-1.1c2-0.8,4-1.8,5.9-2.9l1.3-2c1-1.8,1.7-3.6,2.3-5.6c0.7-2.4,0.9-4.8,0.8-7.2l11.5,0.1c-0.1,3.5-0.8,7-2.1,10.3
	c-1.2,3-3.1,5.8-5.5,7.9l-3.1,2.2c-1.9,3-4.7,5.5-7.9,7C339.7,121.3,335.4,122.2,331.1,122.1z"/>
<path class="st2" d="M114.3,155.7H86.4l-2.3,10.1h22.7l-3.1,13.4H81l-4.8,21h-18l13.4-57.9h45.9L114.3,155.7z"/>
<path class="st2" d="M143.7,201c-4.7,0.1-9.3-0.9-13.5-3c-3.9-1.9-7.2-5-9.5-8.7c-2.4-4.2-3.6-8.9-3.5-13.8c0-4.6,0.7-9.2,2.2-13.6
	c1.3-4,3.5-7.7,6.2-10.9c2.8-3.1,6.2-5.5,10-7.1c4.2-1.7,8.8-2.6,13.4-2.5c4.7-0.1,9.3,0.9,13.5,3c3.9,2,7.2,5,9.4,8.7
	c2.4,4.2,3.6,8.9,3.5,13.8c0,4.6-0.7,9.2-2.1,13.6c-1.3,4-3.4,7.7-6.2,10.9c-2.7,3.1-6.2,5.6-10,7.1
	C152.9,200.2,148.3,201.1,143.7,201z M144.1,187.2c2.1,0.1,4.2-0.7,5.9-2c1.8-1.5,3.2-3.3,4.2-5.3c1.1-2.3,2-4.7,2.5-7.1
	c0.5-2.4,0.8-4.9,0.8-7.4c0.1-1.9-0.3-3.8-1-5.6c-0.6-1.4-1.7-2.6-3-3.4c-1.5-0.8-3.3-1.2-5-1.1c-2.2-0.1-4.3,0.7-5.9,2
	c-1.7,1.5-3.2,3.3-4.2,5.3c-1.1,2.3-2,4.7-2.5,7.1c-0.5,2.4-0.8,4.9-0.8,7.4c-0.1,1.9,0.3,3.8,1,5.6c0.6,1.5,1.6,2.7,3,3.5
	C140.6,186.9,142.4,187.3,144.1,187.2L144.1,187.2z"/>
<path class="st2" d="M207.4,201c-6.1,0-11.1-1.1-15.2-3.2c-3.8-1.9-6.8-5.2-8.4-9.2c-1.6-4-1.7-8.8-0.4-14.4l7.4-32h18.1l-7.9,34.3
	c-0.5,1.9-0.5,3.9,0,5.8c0.4,1.5,1.4,2.8,2.8,3.7c1.6,0.9,3.3,1.3,5.1,1.3c2.3,0.1,4.6-0.7,6.3-2.4c1.7-2.1,2.9-4.6,3.3-7.3
	l8.2-35.3h17.9l-8.2,35.2c-1.9,8-5.2,13.9-9.8,17.8C222.1,199.1,215.7,201,207.4,201z"/>
<path class="st2" d="M243.3,200.1l13.4-57.9h18.9l9,29.4l2.5,8.8h0.2l2.5-13.1l5.8-25.1h15.7l-13.4,57.9h-18.6l-9.4-28.7l-2.5-8.8
	h-0.2l-2.4,12.4l-5.8,25.1H243.3z"/>
<path class="st2" d="M310.9,200.1l13.4-57.9h21.8c5.7,0,10.4,1,14.2,3c3.6,1.8,6.6,4.7,8.6,8.3c2,3.8,3,8.1,2.9,12.4
	c0.1,4.8-0.7,9.5-2.1,14c-2.6,8.1-8.7,14.6-16.5,17.7c-4.4,1.7-9,2.5-13.7,2.4L310.9,200.1z M332,187.1h6.5c2.4,0.1,4.8-0.6,6.9-1.9
	c2-1.3,3.6-3,4.8-5c1.3-2.2,2.2-4.5,2.8-6.9c0.6-2.5,0.9-5,0.9-7.6c0-1.9-0.3-3.8-1-5.6c-0.7-1.5-1.8-2.7-3.2-3.6
	c-1.7-0.9-3.5-1.3-5.4-1.2h-4.9L332,187.1z"/>
</svg>
