<?xml version="1.0" encoding="UTF-8"?>
<svg id="Ebene_2" data-name="Ebene 2" xmlns="http://www.w3.org/2000/svg" viewBox="0 0 316.83 308.72">
  <defs>
    <style>
      .cls-1 {
        stroke: #eb5f48;
        stroke-miterlimit: 10;
        stroke-width: .5px;
      }

      .cls-1, .cls-2 {
        fill: #eb5f48;
      }

      .cls-2 {
        stroke-width: 0px;
      }
    </style>
  </defs>
  <g id="Ebene_1-2" data-name="Ebene 1">
    <line class="cls-1" x1="27.02" y1="154.14" x2="147.55" y2="139.14"/>
    <line class="cls-1" x1="147.34" y1="169.28" x2="26.81" y2="154.28"/>
    <line class="cls-1" x1="162.26" y1="19.02" x2="177.26" y2="139.55"/>
    <line class="cls-1" x1="147.11" y1="139.34" x2="162.11" y2="18.81"/>
    <line class="cls-1" x1="297.34" y1="154.25" x2="176.82" y2="169.25"/>
    <line class="cls-1" x1="177.03" y1="139.11" x2="297.55" y2="154.11"/>
    <line class="cls-1" x1="162.11" y1="289.34" x2="147.11" y2="168.81"/>
    <line class="cls-1" x1="177.26" y1="169.02" x2="162.26" y2="289.55"/>
    <path class="cls-2" d="M168.19,13.25h-.7V0h.97v13.5h-1.31L156.04.25h.7v13.25h-.97V0h1.31l11.11,13.25Z"/>
    <path class="cls-2" d="M309.4,160.72c-1.46,0-2.76-.29-3.88-.88s-2-1.41-2.62-2.46c-.62-1.05-.94-2.26-.94-3.65s.31-2.57.94-3.62c.62-1.04,1.5-1.86,2.62-2.45s2.42-.88,3.9-.88,2.75.29,3.87.88c1.12.59,1.99,1.4,2.61,2.45.62,1.04.94,2.25.94,3.62s-.31,2.6-.94,3.65c-.62,1.05-1.49,1.87-2.61,2.46-1.12.59-2.41.88-3.89.88ZM309.4,159.78c1.3,0,2.42-.25,3.38-.75.96-.5,1.7-1.2,2.22-2.11.52-.91.78-1.97.78-3.19s-.26-2.27-.78-3.17-1.26-1.6-2.22-2.1c-.96-.5-2.09-.75-3.38-.75s-2.42.25-3.38.75c-.95.5-1.7,1.2-2.22,2.1-.53.9-.79,1.96-.79,3.19s.26,2.27.79,3.18c.53.91,1.27,1.61,2.22,2.11.96.5,2.08.75,3.38.75Z"/>
    <path class="cls-2" d="M16.92,160.3h-.63l4.91-13.3h1.04l-5.06,13.5h-1.21l-5.2-13.21h.68l-5.2,13.21h-1.21l-5.06-13.5h1.04l4.91,13.3h-.61l5.18-13.3h1.19l5.2,13.3Z"/>
    <path class="cls-2" d="M156.8,304.14h1.01c.1.73.37,1.37.84,1.93.46.55,1.07.98,1.84,1.28.76.3,1.63.45,2.62.45,1.49,0,2.68-.27,3.56-.82.89-.55,1.33-1.29,1.33-2.24,0-.7-.29-1.24-.87-1.62-.58-.38-1.58-.65-3-.81l-2.29-.25c-1.67-.18-2.85-.56-3.56-1.15-.7-.59-1.05-1.34-1.05-2.27,0-.79.23-1.48.7-2.05.47-.58,1.12-1.02,1.94-1.33.83-.31,1.79-.47,2.88-.47s2.13.17,3,.52,1.56.83,2.07,1.46.79,1.35.84,2.18h-1.01c-.07-.66-.32-1.23-.76-1.71s-1-.86-1.71-1.12c-.71-.27-1.52-.4-2.45-.4-1.37,0-2.46.26-3.28.77-.82.52-1.22,1.24-1.22,2.16,0,.72.29,1.27.87,1.66.58.38,1.55.65,2.91.81l2.18.25c1.15.13,2.08.33,2.79.59.71.26,1.22.62,1.54,1.07s.48,1.01.48,1.68c0,.84-.25,1.56-.74,2.16-.49.6-1.18,1.06-2.07,1.38s-1.93.48-3.11.48-2.23-.19-3.15-.58c-.92-.38-1.66-.92-2.21-1.61-.55-.69-.86-1.48-.92-2.38Z"/>
  </g>
</svg>