<?xml version="1.0" encoding="UTF-8"?>
<svg id="Ebene_2" data-name="Ebene 2" xmlns="http://www.w3.org/2000/svg" viewBox="0 0 896.22 4237.85">
  <defs>
    <style>
      .cls-1 {
        stroke: #f5f5f5;
      }

      .cls-1, .cls-2 {
        fill: none;
        stroke-miterlimit: 10;
      }

      .cls-2 {
        stroke: #000;
        stroke-width: 3px;
      }
    </style>
  </defs>
  <g id="Ebene_1-2" data-name="Ebene 1">
    <path class="cls-2" d="M408.55,135.36c-178.24,183.99-178.61,298.26-164,356,5,19.77,11.81,33.12,109,167,140.43,193.45,155.48,205.88,174,252,12.95,32.25,63.53,170.46,11,301-43.24,107.45-119.01,116.95-354,314C8.91,1672.64.65,1709.76,1.55,1733.36c3.31,86.66,160.28,88.6,377,233,124.56,83,293.07,195.28,300,343,3.14,66.91-28.97,96.36-197,333-216.5,304.9-229,348.69-224,396,10.37,98.07,108.92,175.72,306,331,202.76,159.76,345.58,229.42,330,295-13.68,57.58-133.61,45.27-158,119-26.89,81.27,100.58,151.45,94,226-6.97,79-164.29,161.18-659,227"/>
    <line class="cls-1" x1="272.18" y1="135.39" x2="392.71" y2="120.39"/>
    <line class="cls-1" x1="392.5" y1="150.53" x2="271.97" y2="135.53"/>
    <line class="cls-1" x1="407.41" y1=".27" x2="422.41" y2="120.8"/>
    <line class="cls-1" x1="392.27" y1="120.59" x2="407.27" y2=".06"/>
    <line class="cls-1" x1="542.5" y1="135.5" x2="421.97" y2="150.5"/>
    <line class="cls-1" x1="422.18" y1="120.36" x2="542.71" y2="135.36"/>
    <line class="cls-1" x1="407.27" y1="270.59" x2="392.27" y2="150.06"/>
    <line class="cls-1" x1="422.41" y1="150.27" x2="407.41" y2="270.8"/>
  </g>
</svg>