<?xml version="1.0" encoding="UTF-8"?>
<svg id="Ebene_2" data-name="Ebene 2" xmlns="http://www.w3.org/2000/svg" viewBox="0 0 896.22 4103.53">
  <defs>
    <style>
      .cls-1 {
        fill: none;
        stroke: #000;
        stroke-miterlimit: 10;
        stroke-width: 3px;
      }
    </style>
  </defs>
  <g id="Ebene_1-2" data-name="Ebene 1">
    <path id="path" class="cls-1" d="M408.55,1.04c-178.24,183.99-178.61,298.26-164,356,5,19.77,11.81,33.12,109,167,140.43,193.45,155.48,205.88,174,252,12.95,32.25,63.53,170.46,11,301-43.24,107.45-119.01,116.95-354,314C8.91,1538.33.65,1575.44,1.55,1599.04c3.31,86.66,160.28,88.6,377,233,124.56,83,293.07,195.28,300,343,3.14,66.91-28.97,96.36-197,333-216.5,304.9-229,348.69-224,396,10.37,98.07,108.92,175.72,306,331,202.76,159.76,345.58,229.42,330,295-13.68,57.58-133.61,45.27-158,119-26.89,81.27,100.58,151.45,94,226-6.97,79-164.29,161.18-659,227"/>
  </g>
</svg>