<svg xmlns="http://www.w3.org/2000/svg" viewBox="0 0 1392.13 457.2"><defs><style>.cls-1{fill:#fff;}.cls-2{fill:#129bd8;}</style></defs><g id="Text"><path class="cls-1" d="M850.44,624.86a4.76,4.76,0,0,1,6.35,2.82c10.53,30.22,41.72,44.17,71.09,44.17,24.19,0,51.07-8.73,51.07-35.61,0-17.47-16.13-27.55-37-36.28l-49.72-18.82c-67.87-25.53-85.34-63.83-85.34-94.74,0-63.16,53.76-102.8,124.31-102.8,41.91,0,94,14,117.18,71.37a4.76,4.76,0,0,1-2.83,6.22l-57.46,20.89a4.76,4.76,0,0,1-6-2.64c-9.84-24.05-33-30.67-50.19-30.67-21.5,0-44.35,12.1-44.35,35.61,0,18.82,16.8,28.23,35.62,34.94l50.39,18.15c72.57,24.19,86.68,67.86,86.68,97.43,0,67.19-62.49,103.47-133,103.47-53.9,0-114.88-21.86-135.74-83.83a4.79,4.79,0,0,1,2.7-5.9Z" transform="translate(-278.5 -282.48)"/><path class="cls-1" d="M1356.81,545.5c0-61-24.25-92.83-65.12-92.83-38.79,0-76.9,29.79-79,106.69V733.82a5,5,0,0,1-5,5h-75.29a5,5,0,0,1-5-5V393.2a5,5,0,0,1,5-5h75.29a5,5,0,0,1,5,5v34.27a4.94,4.94,0,0,0,9.08,2.7c20.84-32.15,55.44-49.55,94.14-49.55,41.07,0,81.53,15.34,105.21,57.58a5,5,0,0,0,8.62.06c28.29-48.9,74.45-57.64,110.62-57.64,90.75,0,130.24,63.05,130.24,164.19v189a5,5,0,0,1-5,5h-75.29a5,5,0,0,1-5-5V545.5c0-61-24.24-92.83-65.12-92.83-38.79,0-76.89,29.79-79,106.69V733.82a5,5,0,0,1-5,5h-74.6a5,5,0,0,1-5-5Z" transform="translate(-278.5 -282.48)"/></g><g id="Logo"><path class="cls-2" d="M356.9,378.63h0a1.08,1.08,0,0,1,1.08,1.08v74.55a3.85,3.85,0,0,1-3.85,3.85H279.58A1.08,1.08,0,0,1,278.5,457v0A78.4,78.4,0,0,1,356.9,378.63Z" transform="translate(-378.63 454.13) rotate(-90)"/><path class="cls-2" d="M470.12,590l-64.39,27.5a5.19,5.19,0,0,1-7-3.21A182.78,182.78,0,0,1,391,561.59V288.13a5.69,5.69,0,0,1,5.73-5.65,73.82,73.82,0,0,1,73.75,73.78v22.38h-.08v82.74h.19V561.59A99.44,99.44,0,0,0,473.09,584,5.2,5.2,0,0,1,470.12,590Z" transform="translate(-278.5 -282.48)"/><path class="cls-1" d="M615.82,384.88v78.54a4.86,4.86,0,0,0,2.62,4.29,100.73,100.73,0,1,1-128.1,148.86,4.87,4.87,0,0,0-5.84-1.65l-65.66,28a4.86,4.86,0,0,0-2.32,6.91,182.89,182.89,0,0,0,340.35-93.08c0-84.32-57.29-155.48-135-176.59A4.84,4.84,0,0,0,615.82,384.88Z" transform="translate(-278.5 -282.48)"/><path class="cls-2" d="M573.93,378.64H508.44a5.06,5.06,0,0,0-5.06,5.05v72.09a5.07,5.07,0,0,0,5.06,5.06h62.88c2,0,4.08.06,6.11.19a5,5,0,0,0,5.35-5V383.74a5.08,5.08,0,0,0-5-5.06C576.51,378.65,575.22,378.64,573.93,378.64Z" transform="translate(-278.5 -282.48)"/></g></svg>