<svg width="975" height="5745" viewBox="0 0 975 5745" fill="none" xmlns="http://www.w3.org/2000/svg">
<path id="path" d="M327 357.5L329.977 357.126L327 357.5ZM466.5 5385.5L469.192 5386.82L466.5 5385.5ZM314.5 5728.5C314.5 5737.34 321.663 5744.5 330.5 5744.5C339.337 5744.5 346.5 5737.34 346.5 5728.5C346.5 5719.66 339.337 5712.5 330.5 5712.5C321.663 5712.5 314.5 5719.66 314.5 5728.5ZM-17.2388 5.73228C-14.5776 6.93888 -11.8446 8.20348 -9.04479 9.52512L-6.48349 4.09929C-9.31018 2.76493 -12.0711 1.48741 -14.7612 0.267719L-17.2388 5.73228ZM7.28195 17.5079C12.5065 20.1468 17.9008 22.9495 23.4393 25.9111L26.2686 20.62C20.6897 17.6368 15.254 14.8126 9.98706 12.1523L7.28195 17.5079ZM39.4446 34.6944C44.6032 37.597 49.8569 40.622 55.1877 43.7659L58.2357 38.5978C52.8698 35.4331 47.5808 32.3878 42.3869 29.4653L39.4446 34.6944ZM70.7764 53.1702C75.8672 56.3106 81.0096 59.5512 86.1889 62.8892L89.4393 57.8458C84.2262 54.4861 79.0504 51.2245 73.9265 48.0636L70.7764 53.1702ZM101.409 72.9137C106.398 76.2711 111.407 79.7143 116.423 83.2408L119.874 78.3322C114.823 74.7819 109.781 71.3157 104.759 67.9361L101.409 72.9137ZM131.218 93.8718C136.077 97.4416 140.932 101.087 145.771 104.806L149.428 100.049C144.553 96.3027 139.664 92.6311 134.77 89.0363L131.218 93.8718ZM160.076 116.058C164.786 119.85 169.469 123.711 174.115 127.638L177.988 123.056C173.305 119.097 168.585 115.206 163.839 111.385L160.076 116.058ZM187.863 139.558C192.391 143.586 196.871 147.677 201.294 151.829L205.401 147.455C200.938 143.265 196.418 139.137 191.851 135.075L187.863 139.558ZM214.374 164.465C218.677 168.746 222.912 173.085 227.066 177.482L231.427 173.361C227.228 168.918 222.951 164.534 218.605 160.211L214.374 164.465ZM239.328 190.895C243.352 195.448 247.282 200.057 251.11 204.719L255.747 200.912C251.872 196.192 247.894 191.527 243.825 186.922L239.328 190.895ZM262.353 218.972C266.021 223.819 269.57 228.718 272.99 233.668L277.926 230.257C274.455 225.233 270.855 220.264 267.137 215.352L262.353 218.972ZM282.944 248.817C286.156 253.971 289.221 259.175 292.126 264.426L297.376 261.521C294.418 256.175 291.3 250.882 288.036 245.643L282.944 248.817ZM300.439 280.495C303.066 285.956 305.515 291.464 307.772 297.015L313.33 294.756C311.024 289.084 308.525 283.463 305.845 277.894L300.439 280.495ZM314.013 313.974C315.903 319.71 317.58 325.489 319.033 331.309L324.855 329.856C323.365 323.889 321.646 317.968 319.712 312.097L314.013 313.974ZM322.716 348.956C323.212 351.919 323.649 354.892 324.023 357.874L329.977 357.126C329.592 354.061 329.143 351.007 328.634 347.964L322.716 348.956ZM324.023 357.874C324.386 360.76 324.758 363.657 325.14 366.565L331.089 365.783C330.708 362.887 330.338 360.001 329.977 357.126L324.023 357.874ZM327.533 384.026C328.357 389.804 329.217 395.618 330.114 401.465L336.045 400.555C335.151 394.729 334.293 388.936 333.472 383.179L327.533 384.026ZM332.879 418.879C333.823 424.636 334.801 430.421 335.813 436.228L341.724 435.198C340.715 429.41 339.74 423.646 338.799 417.908L332.879 418.879ZM338.92 453.555C339.98 459.307 341.073 465.076 342.197 470.86L348.087 469.715C346.966 463.95 345.877 458.2 344.821 452.468L338.92 453.555ZM345.641 488.137C346.813 493.877 348.016 499.627 349.249 505.384L355.116 504.127C353.887 498.389 352.688 492.658 351.519 486.936L345.641 488.137ZM353.02 522.587C354.303 528.307 355.614 534.029 356.954 539.75L362.796 538.382C361.46 532.679 360.153 526.976 358.875 521.275L353.02 522.587ZM361.053 556.88C362.447 562.582 363.869 568.28 365.319 573.971L371.133 572.489C369.688 566.818 368.271 561.139 366.882 555.455L361.053 556.88ZM369.752 591.016C371.259 596.695 372.794 602.363 374.356 608.015L380.139 606.417C378.583 600.784 377.053 595.137 375.551 589.477L369.752 591.016ZM379.136 624.974C380.763 630.63 382.416 636.268 384.097 641.882L389.845 640.162C388.171 634.568 386.523 628.952 384.903 623.316L379.136 624.974ZM389.241 658.733C390.992 664.356 392.77 669.952 394.574 675.518L400.282 673.668C398.485 668.124 396.714 662.55 394.97 656.949L389.241 658.733ZM400.103 692.231C401.992 697.826 403.907 703.384 405.849 708.904L411.509 706.913C409.576 701.418 407.669 695.883 405.788 690.312L400.103 692.231ZM411.812 725.501C413.848 731.051 415.912 736.556 418.002 742.011L423.605 739.865C421.525 734.436 419.471 728.958 417.444 723.434L411.812 725.501ZM424.432 758.426C426.633 763.92 428.861 769.358 431.117 774.735L436.649 772.414C434.407 767.068 432.191 761.66 430.001 756.195L424.432 758.426ZM438.074 790.927C440.462 796.353 442.879 801.709 445.324 806.989L450.769 804.468C448.34 799.223 445.939 793.902 443.565 788.509L438.074 790.927ZM452.898 822.921C455.511 828.271 458.154 833.534 460.827 838.704L466.157 835.948C463.506 830.821 460.884 825.599 458.29 820.288L452.898 822.921ZM469.133 854.294C472.009 859.529 474.917 864.653 477.856 869.661L483.031 866.623C480.122 861.667 477.242 856.592 474.392 851.405L469.133 854.294ZM487.041 884.761C490.24 889.831 493.473 894.761 496.74 899.542L501.694 896.157C498.47 891.439 495.277 886.571 492.116 881.56L487.041 884.761ZM507.031 913.95C510.651 918.793 514.311 923.451 518.01 927.915L522.63 924.087C518.999 919.705 515.4 915.125 511.836 910.358L507.031 913.95ZM529.748 941.275C531.78 943.451 533.824 945.566 535.879 947.621L540.121 943.379C538.116 941.373 536.119 939.306 534.132 937.179L529.748 941.275ZM535.879 947.621C537.912 949.654 539.974 951.732 542.065 953.854L546.339 949.644C544.238 947.511 542.165 945.422 540.121 943.379L535.879 947.621ZM554.46 966.619C558.46 970.795 562.539 975.109 566.683 979.551L571.071 975.458C566.908 970.997 562.812 966.664 558.793 962.468L554.46 966.619ZM578.725 992.622C582.639 996.923 586.598 1001.33 590.592 1005.82L595.079 1001.84C591.068 997.324 587.093 992.903 583.163 988.584L578.725 992.622ZM602.305 1019.18C606.137 1023.6 609.991 1028.1 613.86 1032.67L618.441 1028.8C614.556 1024.2 610.686 1019.69 606.839 1015.25L602.305 1019.18ZM625.252 1046.31C628.988 1050.83 632.729 1055.42 636.468 1060.07L641.142 1056.31C637.387 1051.64 633.631 1047.03 629.88 1042.49L625.252 1046.31ZM647.509 1073.97C651.141 1078.6 654.764 1083.28 658.372 1088.01L663.142 1084.37C659.518 1079.62 655.879 1074.92 652.231 1070.27L647.509 1073.97ZM669.046 1102.2C672.562 1106.94 676.056 1111.72 679.521 1116.54L684.392 1113.04C680.909 1108.2 677.398 1103.39 673.866 1098.63L669.046 1102.2ZM689.785 1131.03C693.167 1135.89 696.515 1140.77 699.822 1145.68L704.798 1142.33C701.473 1137.39 698.107 1132.48 694.707 1127.6L689.785 1131.03ZM709.614 1160.48C712.84 1165.45 716.018 1170.45 719.143 1175.45L724.234 1172.28C721.09 1167.24 717.892 1162.22 714.647 1157.22L709.614 1160.48ZM728.385 1190.59C731.426 1195.69 734.405 1200.79 737.316 1205.91L742.531 1202.94C739.599 1197.79 736.598 1192.65 733.537 1187.52L728.385 1190.59ZM745.911 1221.42C748.733 1226.65 751.476 1231.89 754.134 1237.13L759.485 1234.41C756.803 1229.13 754.037 1223.85 751.192 1218.57L745.911 1221.42ZM761.941 1253.04C764.489 1258.42 766.939 1263.79 769.284 1269.16L774.782 1266.75C772.412 1261.33 769.937 1255.9 767.364 1250.47L761.941 1253.04ZM776.105 1285.49C778.307 1291.03 780.386 1296.55 782.336 1302.04L787.991 1300.04C786.015 1294.47 783.909 1288.88 781.68 1283.27L776.105 1285.49ZM787.895 1318.82C789.647 1324.51 791.247 1330.18 792.685 1335.8L798.498 1334.32C797.035 1328.6 795.409 1322.84 793.63 1317.05L787.895 1318.82ZM796.59 1352.99C797.745 1358.83 798.709 1364.62 799.472 1370.34L805.419 1369.55C804.639 1363.69 803.654 1357.78 802.476 1351.83L796.59 1352.99ZM801.174 1387.84C801.53 1393.77 801.647 1399.63 801.513 1405.4L807.511 1405.54C807.65 1399.59 807.529 1393.57 807.163 1387.48L801.174 1387.84ZM800.292 1422.87C799.948 1425.77 799.532 1428.64 799.043 1431.49L804.957 1432.51C805.463 1429.55 805.894 1426.58 806.25 1423.58L800.292 1422.87ZM799.043 1431.49C798.623 1433.94 797.993 1436.57 797.151 1439.37L802.898 1441.1C803.798 1438.1 804.49 1435.23 804.957 1432.51L799.043 1431.49ZM790.799 1455.75C788.506 1460.74 785.79 1466.07 782.671 1471.73L787.926 1474.62C791.101 1468.86 793.886 1463.4 796.251 1458.26L790.799 1455.75ZM773.485 1487.47C770.583 1492.22 767.463 1497.14 764.136 1502.24L769.161 1505.52C772.516 1500.38 775.667 1495.4 778.603 1490.61L773.485 1487.47ZM754.002 1517.39C750.767 1522.12 747.383 1526.98 743.858 1531.96L748.756 1535.43C752.297 1530.42 755.7 1525.53 758.955 1520.77L754.002 1517.39ZM733.28 1546.72C729.876 1551.41 726.364 1556.2 722.75 1561.08L727.573 1564.65C731.197 1559.75 734.72 1554.95 738.137 1550.24L733.28 1546.72ZM711.833 1575.72C708.352 1580.36 704.79 1585.07 701.151 1589.86L705.928 1593.49C709.573 1588.69 713.142 1583.97 716.631 1579.32L711.833 1575.72ZM690.01 1604.45C686.473 1609.06 682.874 1613.73 679.215 1618.47L683.964 1622.14C687.626 1617.39 691.23 1612.71 694.771 1608.1L690.01 1604.45ZM668.147 1632.77C664.493 1637.47 660.787 1642.24 657.032 1647.06L661.766 1650.75C665.523 1645.92 669.231 1641.16 672.887 1636.45L668.147 1632.77ZM646.066 1661.12C642.367 1665.86 638.625 1670.65 634.843 1675.48L639.57 1679.18C643.353 1674.34 647.096 1669.55 650.796 1664.81L646.066 1661.12ZM623.822 1689.58C620.169 1694.25 616.483 1698.97 612.766 1703.72L617.494 1707.42C621.211 1702.66 624.896 1697.95 628.548 1693.28L623.822 1689.58ZM601.524 1718.12C597.899 1722.77 594.247 1727.45 590.57 1732.17L595.304 1735.86C598.979 1731.14 602.63 1726.46 606.254 1721.81L601.524 1718.12ZM579.524 1746.38C575.819 1751.15 572.092 1755.95 568.345 1760.8L573.09 1764.47C576.835 1759.63 580.56 1754.83 584.263 1750.06L579.524 1746.38ZM557.446 1774.91C553.805 1779.63 550.146 1784.38 546.473 1789.17L551.232 1792.82C554.903 1788.04 558.559 1783.29 562.198 1778.57L557.446 1774.91ZM535.41 1803.62C531.808 1808.34 528.194 1813.08 524.57 1817.85L529.348 1821.48C532.969 1816.71 536.58 1811.97 540.178 1807.26L535.41 1803.62ZM513.712 1832.19C510.083 1836.99 506.446 1841.83 502.801 1846.69L507.6 1850.29C511.241 1845.43 514.875 1840.61 518.5 1835.8L513.712 1832.19ZM492.039 1861.08C488.473 1865.86 484.903 1870.67 481.328 1875.5L486.152 1879.07C489.722 1874.25 493.288 1869.44 496.85 1864.66L492.039 1861.08ZM470.595 1890.07C467.046 1894.9 463.495 1899.76 459.943 1904.64L464.793 1908.17C468.341 1903.3 471.887 1898.45 475.432 1893.62L470.595 1890.07ZM449.405 1919.17C445.893 1924.04 442.381 1928.93 438.872 1933.83L443.752 1937.32C447.256 1932.42 450.763 1927.54 454.27 1922.69L449.405 1919.17ZM428.371 1948.58C424.919 1953.45 421.471 1958.34 418.028 1963.25L422.94 1966.7C426.378 1961.8 429.82 1956.91 433.267 1952.05L428.371 1948.58ZM407.715 1978.03C404.283 1982.97 400.857 1987.94 397.44 1992.91L402.386 1996.31C405.798 1991.34 409.217 1986.39 412.644 1981.45L407.715 1978.03ZM387.288 2007.78C383.921 2012.74 380.563 2017.72 377.216 2022.71L382.199 2026.05C385.54 2021.07 388.892 2016.1 392.252 2011.15L387.288 2007.78ZM367.205 2037.73C363.886 2042.74 360.578 2047.77 357.283 2052.81L362.306 2056.09C365.594 2051.06 368.895 2046.04 372.207 2041.04L367.205 2037.73ZM347.475 2067.91C344.22 2072.96 340.978 2078.03 337.752 2083.1L342.816 2086.32C346.035 2081.26 349.269 2076.2 352.518 2071.17L347.475 2067.91ZM328.122 2098.36C324.933 2103.46 321.76 2108.56 318.605 2113.68L323.713 2116.83C326.86 2111.72 330.025 2106.63 333.207 2101.55L328.122 2098.36ZM309.198 2129.07C306.081 2134.2 302.984 2139.36 299.907 2144.52L305.06 2147.59C308.129 2142.44 311.219 2137.3 314.328 2132.18L309.198 2129.07ZM290.729 2160.05C287.687 2165.24 284.667 2170.45 281.671 2175.66L286.874 2178.65C289.861 2173.45 292.873 2168.26 295.906 2163.08L290.729 2160.05ZM272.755 2191.33C269.806 2196.57 266.882 2201.81 263.983 2207.06L269.237 2209.96C272.126 2204.73 275.042 2199.5 277.983 2194.28L272.755 2191.33ZM255.319 2222.94C252.459 2228.23 249.626 2233.54 246.822 2238.85L252.129 2241.65C254.923 2236.36 257.747 2231.07 260.599 2225.79L255.319 2222.94ZM238.5 2254.81C235.738 2260.18 233.007 2265.55 230.308 2270.92L235.67 2273.61C238.36 2268.26 241.082 2262.91 243.835 2257.56L238.5 2254.81ZM222.286 2287.12C219.645 2292.52 217.038 2297.93 214.467 2303.34L219.887 2305.92C222.448 2300.52 225.045 2295.14 227.676 2289.75L222.286 2287.12ZM206.83 2319.67C204.298 2325.16 201.805 2330.66 199.35 2336.16L204.83 2338.61C207.274 2333.13 209.758 2327.65 212.279 2322.18L206.83 2319.67ZM192.106 2352.68C189.731 2358.19 187.397 2363.7 185.105 2369.22L190.646 2371.52C192.927 2366.03 195.251 2360.54 197.616 2355.05L192.106 2352.68ZM178.253 2386.03C176.014 2391.63 173.819 2397.24 171.671 2402.85L177.274 2405C179.412 2399.41 181.596 2393.83 183.825 2388.25L178.253 2386.03ZM165.368 2419.68C163.287 2425.37 161.256 2431.05 159.276 2436.74L164.942 2438.71C166.912 2433.06 168.932 2427.4 171.002 2421.74L165.368 2419.68ZM153.461 2453.88C151.576 2459.59 149.743 2465.3 147.965 2471.01L153.694 2472.8C155.462 2467.12 157.284 2461.44 159.159 2455.76L153.461 2453.88ZM142.747 2488.31C141.048 2494.13 139.408 2499.95 137.828 2505.76L143.618 2507.34C145.188 2501.56 146.818 2495.78 148.506 2490L142.747 2488.31ZM133.271 2523.2C131.802 2529.05 130.397 2534.89 129.056 2540.73L134.904 2542.08C136.235 2536.28 137.631 2530.47 139.09 2524.66L133.271 2523.2ZM125.182 2558.47C123.958 2564.38 122.802 2570.28 121.717 2576.17L127.617 2577.26C128.695 2571.41 129.842 2565.55 131.057 2559.69L125.182 2558.47ZM118.655 2593.93C117.694 2599.93 116.806 2605.92 115.996 2611.9L121.942 2612.71C122.745 2606.78 123.626 2600.83 124.58 2594.89L118.655 2593.93ZM113.796 2629.83C113.137 2635.82 112.558 2641.8 112.06 2647.77L118.039 2648.27C118.533 2642.35 119.107 2636.42 119.76 2630.48L113.796 2629.83ZM110.798 2665.89C110.462 2671.92 110.211 2677.94 110.048 2683.95L116.046 2684.11C116.208 2678.16 116.456 2672.2 116.789 2666.23L110.798 2665.89ZM109.823 2702C109.837 2708.06 109.944 2714.11 110.144 2720.14L116.141 2719.94C115.943 2713.97 115.837 2707.98 115.823 2701.98L109.823 2702ZM111.03 2738.21C111.421 2744.23 111.909 2750.23 112.496 2756.22L118.468 2755.64C117.887 2749.72 117.404 2743.77 117.017 2737.82L111.03 2738.21ZM114.567 2774.23C115.358 2780.22 116.252 2786.19 117.249 2792.14L123.167 2791.15C122.181 2785.26 121.298 2779.36 120.515 2773.45L114.567 2774.23ZM120.555 2809.93C121.762 2815.84 123.074 2821.73 124.495 2827.59L130.327 2826.18C128.923 2820.38 127.626 2814.57 126.433 2808.73L120.555 2809.93ZM129.085 2845.14C129.905 2848.05 130.752 2850.96 131.628 2853.87L137.372 2852.13C136.508 2849.27 135.671 2846.39 134.861 2843.52L129.085 2845.14ZM131.628 2853.87C132.459 2856.62 133.306 2859.4 134.169 2862.2L139.903 2860.43C139.043 2857.64 138.2 2854.88 137.372 2852.13L131.628 2853.87ZM139.537 2879.23C141.389 2884.98 143.302 2890.82 145.275 2896.73L150.967 2894.83C149 2888.94 147.093 2883.12 145.249 2877.39L139.537 2879.23ZM151.141 2914.02C153.052 2919.56 155.012 2925.17 157.02 2930.84L162.675 2928.84C160.673 2923.18 158.719 2917.59 156.814 2912.06L151.141 2914.02ZM163.185 2948.03C165.273 2953.78 167.407 2959.59 169.585 2965.46L175.21 2963.37C173.036 2957.51 170.908 2951.72 168.825 2945.98L163.185 2948.03ZM175.802 2982.04C177.912 2987.61 180.06 2993.24 182.246 2998.91L187.845 2996.76C185.663 2991.09 183.519 2985.48 181.413 2979.91L175.802 2982.04ZM188.913 3016.08C191.103 3021.67 193.326 3027.3 195.583 3032.98L201.159 3030.77C198.906 3025.1 196.686 3019.47 194.5 3013.89L188.913 3016.08ZM202.219 3049.57C204.461 3055.14 206.733 3060.75 209.034 3066.39L214.59 3064.13C212.292 3058.49 210.023 3052.89 207.784 3047.33L202.219 3049.57ZM216.025 3083.44C218.303 3088.97 220.608 3094.53 222.939 3100.12L228.477 3097.81C226.149 3092.23 223.847 3086.67 221.572 3081.16L216.025 3083.44ZM229.86 3116.65C232.191 3122.19 234.546 3127.77 236.925 3133.37L242.448 3131.03C240.072 3125.43 237.719 3119.86 235.39 3114.33L229.86 3116.65ZM244.131 3150.28C246.493 3155.8 248.876 3161.34 251.28 3166.92L256.789 3164.54C254.387 3158.97 252.006 3153.43 249.647 3147.92L244.131 3150.28ZM258.401 3183.37C260.794 3188.88 263.207 3194.41 265.639 3199.97L271.136 3197.57C268.706 3192.01 266.295 3186.48 263.904 3180.97L258.401 3183.37ZM272.989 3216.73C275.43 3222.27 277.888 3227.84 280.363 3233.43L285.85 3231C283.376 3225.41 280.92 3219.85 278.481 3214.31L272.989 3216.73ZM287.628 3249.8C290.065 3255.27 292.518 3260.77 294.987 3266.29L300.464 3263.84C297.997 3258.33 295.545 3252.83 293.109 3247.36L287.628 3249.8ZM302.437 3282.91C304.936 3288.47 307.449 3294.04 309.976 3299.64L315.445 3297.17C312.919 3291.58 310.407 3286 307.91 3280.45L302.437 3282.91ZM317.385 3316.02C319.855 3321.47 322.338 3326.93 324.833 3332.41L330.294 3329.93C327.8 3324.45 325.319 3318.99 322.85 3313.54L317.385 3316.02ZM332.354 3348.91C334.873 3354.42 337.404 3359.96 339.946 3365.5L345.4 3363C342.859 3357.46 340.329 3351.93 337.811 3346.42L332.354 3348.91ZM347.554 3382.08C350.048 3387.5 352.553 3392.94 355.067 3398.39L360.516 3395.88C358.002 3390.43 355.499 3384.99 353.005 3379.57L347.554 3382.08ZM362.639 3414.79C365.173 3420.27 367.716 3425.77 370.268 3431.27L375.712 3428.75C373.161 3423.25 370.618 3417.75 368.086 3412.28L362.639 3414.79ZM377.951 3447.83C380.492 3453.29 383.04 3458.77 385.597 3464.26L391.036 3461.73C388.48 3456.24 385.932 3450.76 383.393 3445.3L377.951 3447.83ZM393.208 3480.59C395.753 3486.05 398.304 3491.51 400.863 3496.99L406.299 3494.45C403.741 3488.97 401.189 3483.51 398.645 3478.06L393.208 3480.59ZM408.56 3513.44C411.133 3518.94 413.712 3524.44 416.297 3529.95L421.729 3527.41C419.145 3521.89 416.566 3516.39 413.994 3510.9L408.56 3513.44ZM423.98 3546.33C426.533 3551.76 429.091 3557.21 431.655 3562.66L437.085 3560.11C434.522 3554.66 431.964 3549.21 429.411 3543.78L423.98 3546.33ZM439.362 3579.05C441.935 3584.52 444.514 3589.99 447.097 3595.48L452.525 3592.92C449.942 3587.44 447.364 3581.96 444.79 3576.49L439.362 3579.05ZM454.858 3611.95C457.425 3617.39 459.996 3622.85 462.571 3628.3L467.998 3625.74C465.423 3620.29 462.852 3614.83 460.285 3609.39L454.858 3611.95ZM470.284 3644.65C472.859 3650.11 475.436 3655.57 478.016 3661.03L483.442 3658.47C480.862 3653 478.285 3647.54 475.71 3642.09L470.284 3644.65ZM485.765 3677.44C488.35 3682.91 490.938 3688.39 493.528 3693.87L498.953 3691.31C496.364 3685.83 493.776 3680.35 491.19 3674.88L485.765 3677.44ZM501.259 3710.24C503.833 3715.69 506.41 3721.14 508.988 3726.6L514.413 3724.04C511.835 3718.58 509.259 3713.13 506.684 3707.68L501.259 3710.24ZM516.724 3742.98C519.304 3748.45 521.885 3753.91 524.466 3759.38L529.892 3756.82C527.31 3751.35 524.729 3745.88 522.149 3740.42L516.724 3742.98ZM532.211 3775.79C534.787 3781.25 537.364 3786.71 539.941 3792.18L545.368 3789.62C542.791 3784.15 540.214 3778.69 537.637 3773.23L532.211 3775.79ZM547.666 3808.56C550.241 3814.02 552.815 3819.49 555.388 3824.95L560.816 3822.4C558.242 3816.93 555.668 3811.47 553.094 3806L547.666 3808.56ZM563.103 3841.34C565.674 3846.81 568.244 3852.27 570.812 3857.74L576.242 3855.19C573.674 3849.72 571.104 3844.26 568.533 3838.79L563.103 3841.34ZM578.522 3874.15C581.092 3879.63 583.659 3885.1 586.224 3890.57L591.657 3888.02C589.091 3882.55 586.523 3877.08 583.953 3871.6L578.522 3874.15ZM593.912 3906.98C596.472 3912.45 599.029 3917.92 601.583 3923.38L607.019 3920.84C604.464 3915.38 601.906 3909.91 599.346 3904.44L593.912 3906.98ZM609.235 3939.77C611.796 3945.25 614.352 3950.74 616.905 3956.22L622.344 3953.69C619.791 3948.2 617.234 3942.72 614.673 3937.23L609.235 3939.77ZM624.565 3972.68C627.114 3978.16 629.659 3983.64 632.199 3989.12L637.642 3986.59C635.101 3981.12 632.556 3975.64 630.006 3970.15L624.565 3972.68ZM639.805 4005.53C642.335 4011 644.86 4016.46 647.38 4021.92L652.828 4019.41C650.307 4013.95 647.781 4008.48 645.25 4003.01L639.805 4005.53ZM654.99 4038.42C657.528 4043.93 660.06 4049.44 662.585 4054.94L668.038 4052.43C665.511 4046.93 662.979 4041.42 660.44 4035.91L654.99 4038.42ZM670.142 4071.41C672.655 4076.9 675.16 4082.38 677.659 4087.85L683.117 4085.36C680.617 4079.88 678.111 4074.4 675.597 4068.91L670.142 4071.41ZM685.133 4104.24C687.652 4109.78 690.163 4115.3 692.666 4120.82L698.13 4118.34C695.626 4112.82 693.114 4107.29 690.594 4101.76L685.133 4104.24ZM700.169 4137.39C702.662 4142.9 705.146 4148.41 707.621 4153.91L713.092 4151.44C710.616 4145.94 708.131 4140.44 705.637 4134.92L700.169 4137.39ZM715.02 4170.37C717.477 4175.85 719.925 4181.32 722.362 4186.77L727.841 4184.33C725.402 4178.87 722.953 4173.39 720.495 4167.91L715.02 4170.37ZM729.804 4203.47C732.274 4209.03 734.734 4214.57 737.182 4220.1L742.669 4217.67C740.219 4212.14 737.758 4206.59 735.287 4201.03L729.804 4203.47ZM744.494 4236.66C746.92 4242.17 749.334 4247.67 751.737 4253.15L757.232 4250.74C754.828 4245.25 752.412 4239.75 749.985 4234.24L744.494 4236.66ZM758.959 4269.67C761.402 4275.28 763.832 4280.87 766.248 4286.45L771.754 4284.06C769.336 4278.48 766.904 4272.89 764.459 4267.28L758.959 4269.67ZM773.457 4303.13C775.846 4308.68 778.221 4314.21 780.581 4319.73L786.097 4317.37C783.735 4311.85 781.358 4306.31 778.967 4300.76L773.457 4303.13ZM787.619 4336.23C790 4341.83 792.366 4347.41 794.716 4352.98L800.244 4350.65C797.892 4345.08 795.524 4339.49 793.141 4333.88L787.619 4336.23ZM801.796 4369.82C804.14 4375.42 806.466 4380.99 808.775 4386.55L814.316 4384.24C812.005 4378.68 809.676 4373.1 807.33 4367.5L801.796 4369.82ZM815.649 4403.16C817.938 4408.71 820.21 4414.25 822.463 4419.77L828.017 4417.5C825.762 4411.98 823.488 4406.43 821.196 4400.87L815.649 4403.16ZM829.379 4436.78C831.664 4442.43 833.929 4448.06 836.172 4453.66L841.742 4451.43C839.496 4445.82 837.229 4440.19 834.941 4434.53L829.379 4436.78ZM842.837 4470.39C845.037 4475.95 847.216 4481.47 849.372 4486.98L854.959 4484.79C852.8 4479.28 850.618 4473.74 848.415 4468.18L842.837 4470.39ZM856.037 4504.1C858.245 4509.81 860.428 4515.48 862.585 4521.13L868.19 4518.99C866.03 4513.34 863.844 4507.65 861.633 4501.93L856.037 4504.1ZM868.977 4538C871.082 4543.59 873.16 4549.15 875.211 4554.68L880.836 4552.59C878.782 4547.05 876.7 4541.48 874.593 4535.88L868.977 4538ZM881.541 4571.88C883.644 4577.65 885.716 4583.38 887.756 4589.07L893.405 4587.05C891.36 4581.34 889.284 4575.6 887.177 4569.83L881.541 4571.88ZM893.781 4606.04C895.757 4611.66 897.7 4617.25 899.61 4622.79L905.283 4620.84C903.369 4615.28 901.421 4609.68 899.441 4604.05L893.781 4606.04ZM905.558 4640.26C907.514 4646.07 909.432 4651.84 911.31 4657.57L917.011 4655.7C915.128 4649.96 913.206 4644.17 911.244 4638.35L905.558 4640.26ZM916.823 4674.6C918.654 4680.34 920.442 4686.03 922.188 4691.66L927.919 4689.89C926.169 4684.23 924.375 4678.53 922.539 4672.78L916.823 4674.6ZM927.567 4709.34C929.311 4715.18 931.006 4720.96 932.651 4726.68L938.417 4725.02C936.767 4719.28 935.066 4713.48 933.316 4707.63L927.567 4709.34ZM937.431 4743.67C939.088 4749.69 940.685 4755.64 942.221 4761.52L948.026 4760C946.483 4754.1 944.879 4748.12 943.216 4742.08L937.431 4743.67ZM946.694 4779.15C948.122 4784.95 949.485 4790.68 950.783 4796.33L956.631 4794.98C955.326 4789.3 953.955 4783.54 952.52 4777.71L946.694 4779.15ZM954.736 4814.26C956.008 4820.3 957.199 4826.25 958.307 4832.09L964.202 4830.98C963.086 4825.09 961.887 4819.1 960.607 4813.03L954.736 4814.26ZM961.377 4849.34C962.413 4855.58 963.346 4861.7 964.172 4867.69L970.115 4866.87C969.282 4860.82 968.341 4854.65 967.295 4848.36L961.377 4849.34ZM966.346 4885.48C966.989 4891.55 967.509 4897.48 967.903 4903.26L973.889 4902.85C973.49 4897 972.963 4890.99 972.313 4884.85L966.346 4885.48ZM968.736 4921.52C968.865 4927.52 968.837 4933.34 968.648 4938.97L974.645 4939.17C974.837 4933.43 974.866 4927.5 974.734 4921.39L968.736 4921.52ZM967.384 4957.32C966.736 4963.34 965.865 4969.09 964.767 4974.56L970.65 4975.74C971.787 4970.08 972.684 4964.15 973.35 4957.96L967.384 4957.32ZM960.183 4991.97C959.273 4994.69 958.289 4997.31 957.232 4999.84L962.768 5002.16C963.884 4999.48 964.919 4996.72 965.873 4993.87L960.183 4991.97ZM957.232 4999.84C956.04 5002.7 954.835 5005.5 953.615 5008.27L959.104 5010.69C960.34 5007.89 961.562 5005.05 962.768 5002.16L957.232 4999.84ZM946.126 5024.34C943.407 5029.87 940.625 5035.21 937.784 5040.37L943.04 5043.27C945.926 5038.02 948.751 5032.6 951.511 5026.99L946.126 5024.34ZM928.768 5055.83C925.58 5061 922.328 5065.96 919.015 5070.73L923.944 5074.15C927.319 5069.29 930.63 5064.24 933.873 5058.99L928.768 5055.83ZM908.446 5085.07C904.689 5089.86 900.864 5094.45 896.974 5098.84L901.464 5102.82C905.435 5098.34 909.339 5093.66 913.17 5088.76L908.446 5085.07ZM884.707 5111.83C880.424 5116.09 876.072 5120.14 871.657 5124L875.607 5128.52C880.116 5124.57 884.562 5120.44 888.937 5116.09L884.707 5111.83ZM857.861 5135.31C853.095 5138.97 848.266 5142.44 843.378 5145.73L846.734 5150.71C851.72 5147.35 856.649 5143.8 861.516 5140.07L857.861 5135.31ZM828.287 5155.29C823.135 5158.35 817.929 5161.24 812.674 5164L815.462 5169.31C820.804 5166.51 826.103 5163.56 831.35 5160.45L828.287 5155.29ZM796.628 5171.94C791.204 5174.47 785.737 5176.88 780.234 5179.18L782.554 5184.72C788.123 5182.38 793.663 5179.94 799.166 5177.37L796.628 5171.94ZM763.568 5185.85C757.97 5187.99 752.344 5190.04 746.697 5192.05L748.701 5197.7C754.386 5195.69 760.058 5193.61 765.709 5191.45L763.568 5185.85ZM729.68 5197.9C723.986 5199.82 718.28 5201.69 712.568 5203.56L714.429 5209.26C720.149 5207.39 725.873 5205.51 731.59 5203.59L729.68 5197.9ZM695.407 5209.14C689.681 5211 683.956 5212.88 678.243 5214.78L680.143 5220.48C685.835 5218.57 691.544 5216.71 697.265 5214.84L695.407 5209.14ZM661.121 5220.64C655.424 5222.64 649.746 5224.69 644.095 5226.83L646.216 5232.44C651.816 5230.33 657.45 5228.28 663.109 5226.3L661.121 5220.64ZM627.224 5233.51C621.64 5235.82 616.09 5238.24 610.583 5240.79L613.101 5246.23C618.528 5243.73 624.005 5241.34 629.524 5239.05L627.224 5233.51ZM594.255 5248.8C588.897 5251.59 583.589 5254.53 578.34 5257.64L581.397 5262.8C586.547 5259.75 591.76 5256.87 597.028 5254.12L594.255 5248.8ZM562.944 5267.38C557.955 5270.75 553.03 5274.3 548.176 5278.06L551.847 5282.8C556.596 5279.13 561.417 5275.65 566.304 5272.35L562.944 5267.38ZM534.138 5289.68C529.655 5293.65 525.244 5297.82 520.912 5302.21L525.182 5306.42C529.419 5302.13 533.732 5298.05 538.116 5294.17L534.138 5289.68ZM508.551 5315.59C504.649 5320.11 500.823 5324.82 497.076 5329.76L501.855 5333.39C505.526 5328.55 509.272 5323.93 513.09 5319.52L508.551 5315.59ZM486.476 5344.65C483.172 5349.6 479.94 5354.74 476.783 5360.09L481.952 5363.14C485.052 5357.88 488.224 5352.83 491.465 5347.98L486.476 5344.65ZM468.005 5375.9C466.588 5378.61 465.189 5381.37 463.808 5384.18L469.192 5386.82C470.552 5384.06 471.929 5381.34 473.322 5378.68L468.005 5375.9ZM463.808 5384.18C462.427 5386.98 461.059 5389.77 459.703 5392.55L465.094 5395.18C466.448 5392.41 467.813 5389.63 469.192 5386.82L463.808 5384.18ZM451.625 5409.19C448.908 5414.83 446.245 5420.39 443.635 5425.88L449.054 5428.45C451.659 5422.97 454.317 5417.42 457.029 5411.8L451.625 5409.19ZM435.737 5442.61C433.078 5448.28 430.478 5453.88 427.935 5459.39L433.383 5461.9C435.921 5456.4 438.516 5450.82 441.17 5445.15L435.737 5442.61ZM420.233 5476.22C417.637 5481.94 415.106 5487.57 412.638 5493.1L418.118 5495.54C420.58 5490.02 423.106 5484.41 425.697 5478.7L420.233 5476.22ZM405.158 5510.03C402.635 5515.79 400.184 5521.45 397.804 5526.99L403.318 5529.36C405.692 5523.83 408.137 5518.19 410.655 5512.43L405.158 5510.03ZM390.588 5543.99C388.133 5549.84 385.761 5555.55 383.471 5561.13L389.022 5563.41C391.306 5557.84 393.671 5552.14 396.12 5546.31L390.588 5543.99ZM376.517 5578.3C374.163 5584.19 371.906 5589.92 369.745 5595.48L375.338 5597.66C377.492 5592.11 379.741 5586.4 382.088 5580.53L376.517 5578.3ZM363.113 5612.83C360.856 5618.83 358.72 5624.62 356.703 5630.19L362.344 5632.24C364.353 5626.69 366.48 5620.92 368.729 5614.94L363.113 5612.83ZM350.525 5647.62C348.387 5653.79 346.414 5659.64 344.597 5665.18L350.299 5667.05C352.104 5661.55 354.066 5655.72 356.194 5649.58L350.525 5647.62ZM338.98 5682.91C336.998 5689.41 335.284 5695.34 333.821 5700.7L339.609 5702.28C341.055 5696.99 342.752 5691.11 344.719 5684.66L338.98 5682.91ZM329.301 5718.85C328.531 5722.38 327.946 5725.44 327.537 5728.03L333.463 5728.97C333.85 5726.52 334.411 5723.57 335.164 5720.12L329.301 5718.85Z" fill="white" fill-opacity="0.2"/>
</svg>
